HIERARCHY
ROOT Hips
{
	OFFSET	0.00	0.00	0.00
	CHANNELS 6 Xposition Yposition Zposition Zrotation Xrotation Yrotation
	JOINT LeftUpLeg
	{
		OFFSET	 0.126116	-0.014019	-0.065224
		CHANNELS 3 Zrotation Xrotation Yrotation
		JOINT LeftLeg
		{
			OFFSET	 0.000000	 0.000000	 0.569914
			CHANNELS 3 Zrotation Xrotation Yrotation
			JOINT LeftFoot
			{
				OFFSET	 0.000000	 0.000000	 0.544423
				CHANNELS 3 Zrotation Xrotation Yrotation
				JOINT LeftToeBase
				{
					OFFSET	 0.000000	 0.000000	 0.207117
					CHANNELS 3 Zrotation Xrotation Yrotation
					End Site
					{
						OFFSET	 0.000000	 0.000000	 0.207117
					}
				}
			}
		}
	}
	JOINT RightUpLeg
	{
		OFFSET	-0.124023	-0.008373	-0.065224
		CHANNELS 3 Zrotation Xrotation Yrotation
		JOINT RightLeg
		{
			OFFSET	 0.000000	 0.000000	 0.570047
			CHANNELS 3 Zrotation Xrotation Yrotation
			JOINT RightFoot
			{
				OFFSET	 0.000000	 0.000000	 0.544354
				CHANNELS 3 Zrotation Xrotation Yrotation
				JOINT RightToeBase
				{
					OFFSET	 0.000000	 0.000000	 0.207540
					CHANNELS 3 Zrotation Xrotation Yrotation
					End Site
					{
						OFFSET	 0.000000	 0.000000	 0.207540
					}
				}
			}
		}
	}
	JOINT Spine
	{
		OFFSET	 0.000184	-0.007763	 0.117403
		CHANNELS 3 Zrotation Xrotation Yrotation
		JOINT Spine1
		{
			OFFSET	 0.000000	 0.000000	 0.137269
			CHANNELS 3 Zrotation Xrotation Yrotation
			JOINT Spine2
			{
				OFFSET	 0.000000	 0.000000	 0.156879
				CHANNELS 3 Zrotation Xrotation Yrotation
				JOINT LeftShoulder
				{
					OFFSET	 0.080501	-0.002496	 0.160144
					CHANNELS 3 Zrotation Xrotation Yrotation
					JOINT LeftArm
					{
						OFFSET	 0.000000	 0.000000	 0.164363
						CHANNELS 3 Zrotation Xrotation Yrotation
						JOINT LeftForeArm
						{
							OFFSET	 0.000000	 0.000000	 0.364576
							CHANNELS 3 Zrotation Xrotation Yrotation
							JOINT LeftHand
							{
								OFFSET	 0.000000	 0.000000	 0.360812
								CHANNELS 3 Zrotation Xrotation Yrotation
								JOINT LeftHandIndex1
								{
									OFFSET	 0.000000	 0.000000	 0.086006
									CHANNELS 3 Zrotation Xrotation Yrotation
									JOINT LeftHandIndex2
									{
										OFFSET	 0.000000	 0.000000	 0.047237
										CHANNELS 3 Zrotation Xrotation Yrotation
										JOINT LeftHandIndex3
										{
											OFFSET	-0.004284	-0.000551	 0.038165
											CHANNELS 3 Zrotation Xrotation Yrotation
											End Site
											{
												OFFSET	-0.004284	-0.000551	 0.038165
											}
										}
									}
								}
							}
						}
					}
				}
				JOINT Neck
				{
					OFFSET	 0.000000	 0.000000	 0.176489
					CHANNELS 3 Zrotation Xrotation Yrotation
					JOINT Head
					{
						OFFSET	 0.000000	-0.001747	 0.077940
						CHANNELS 3 Zrotation Xrotation Yrotation
						End Site
						{
							OFFSET	 0.000000	-0.001747	 0.077940
						}
					}
				}
				JOINT RightShoulder
				{
					OFFSET	-0.080363	 0.000306	 0.159706
					CHANNELS 3 Zrotation Xrotation Yrotation
					JOINT RightArm
					{
						OFFSET	 0.000000	 0.000000	 0.164196
						CHANNELS 3 Zrotation Xrotation Yrotation
						JOINT RightForeArm
						{
							OFFSET	 0.000000	 0.000000	 0.365611
							CHANNELS 3 Zrotation Xrotation Yrotation
							JOINT RightHand
							{
								OFFSET	 0.000000	 0.000000	 0.360648
								CHANNELS 3 Zrotation Xrotation Yrotation
								JOINT RightHandIndex1
								{
									OFFSET	 0.000000	 0.000000	 0.069977
									CHANNELS 3 Zrotation Xrotation Yrotation
									JOINT RightHandIndex2
									{
										OFFSET	 0.000000	 0.000000	 0.052305
										CHANNELS 3 Zrotation Xrotation Yrotation
										JOINT RightHandIndex3
										{
											OFFSET	 0.009002	-0.000782	 0.042196
											CHANNELS 3 Zrotation Xrotation Yrotation
											End Site
											{
												OFFSET	 0.009002	-0.000782	 0.042196
											}
										}
									}
								}
							}
						}
					}
				}
			}
		}
	}
}
MOTION
Frames:    13
Frame Time: 0.03333334
-0.718925	-1.661341	 1.274945	-177.924900	 4.432507	-0.315580	-6.321900	-6.071176	 179.023300	 0.220788	-11.062480	 0.417127	-22.531900	 60.454670	 10.486130	-2.385833	 28.452760	 0.000004	-3.734079	-7.868870	-179.542300	-6.823201	-14.558910	 1.026523	 17.298280	 72.726680	-6.990377	 2.384659	 28.388700	-0.000001	-8.315798	 5.071285	 2.193969	-4.700213	-3.093008	-13.104710	 13.689590	-11.046310	 15.566990	-91.776180	 78.527380	-180.000000	-26.802290	-2.028772	-3.244204	-6.713361	-5.853172	-34.845570	 9.561761	-1.798502	-4.892776	-4.131196	 21.524690	 0.986298	-5.167839	 0.733520	 3.519257	-1.378229	 35.397820	-2.634230	 1.405252	 4.518889	-0.147535	-13.138020	-4.618475	-3.245324	 89.782160	 78.203870	 179.999900	-2.404171	 0.103549	-5.790654	-0.728553	-10.426060	 36.894290	-12.300100	 34.313180	 59.790810	 5.715225	 19.176060	-3.692089	 5.027514	 0.245388	-9.378011	-2.350882	 35.473990	 5.254307
-0.719032	-1.660318	 1.275264	-177.319400	 5.383188	-0.747779	-5.529136	-7.126637	 179.299600	-0.722240	-11.252060	 0.240010	-20.540900	 57.750780	 9.925485	-2.385833	 28.452760	 0.000004	-3.922354	-9.418462	-179.159500	-4.672583	-15.483220	 1.668633	 7.456128	 75.343090	 1.594788	 2.384659	 28.388700	-0.000001	-9.257980	 6.112567	 3.011682	-4.967445	-6.823977	-15.289330	 13.648830	-9.363256	 16.847510	-91.776210	 78.527420	-180.000000	-32.972850	 0.999014	-2.664922	-7.046188	-6.303616	-38.001100	 9.232732	-2.319781	-4.606427	-4.131196	 21.524690	 0.986298	-5.167839	 0.733520	 3.519257	-1.378229	 35.397820	-2.634230	 1.667793	 6.576300	-0.029772	-13.032780	-7.830852	-4.162395	 89.782100	 78.203900	 180.000000	-3.135428	 1.347463	-6.913317	-2.255471	-12.579810	 38.953350	-16.329230	 38.616330	 71.095970	 5.715225	 19.176060	-3.692089	 5.027514	 0.245388	-9.378011	-2.350882	 35.473990	 5.254307
-0.718589	-1.659660	 1.275157	-177.138800	 5.547403	-1.064749	-5.216564	-7.339633	 179.549800	-0.756192	-11.443360	 0.237301	-20.305530	 57.092090	 9.891056	-2.385833	 28.452760	 0.000004	-3.236508	-9.917716	-178.828500	-4.715768	-16.061060	 1.717192	 6.279827	 76.956210	 2.981725	 2.384659	 28.388700	-0.000001	-9.610402	 6.253539	 3.283958	-5.143970	-7.417796	-15.315500	 13.589620	-9.092810	 16.709320	-91.776060	 78.527420	 179.999900	-34.102290	 2.124604	-1.680989	-7.470786	-6.472929	-40.292750	 8.879603	-2.521609	-4.514621	-4.131196	 21.524690	 0.986298	-5.167839	 0.733520	 3.519257	-1.378229	 35.397820	-2.634230	 1.647711	 6.942282	 0.132600	-12.956920	-8.250080	-4.254392	 89.782110	 78.203890	 180.000000	-3.389132	 1.874182	-7.494420	-2.147406	-13.151980	 40.399590	-16.917410	 40.011900	 73.059940	 5.715225	 19.176060	-3.692089	 5.027514	 0.245388	-9.378011	-2.350882	 35.473990	 5.254307
-0.716880	-1.657062	 1.274724	-176.629200	 6.066529	-1.949255	-4.323545	-8.225442	-179.847700	-0.847015	-12.734380	 0.243623	-19.994130	 55.659260	 10.221880	-2.385833	 28.452760	 0.000004	-1.319064	-11.446710	-177.813100	-4.835103	-17.718590	 1.852190	-0.022359	 81.271640	 9.841564	 2.384659	 28.388700	-0.000001	-10.759280	 6.527561	 4.044157	-5.812260	-8.749731	-15.664650	 13.501930	-8.452494	 16.531810	-91.776160	 78.527360	-180.000000	-37.132150	 6.020899	 1.961246	-8.862221	-7.001277	-48.381370	 7.896698	-3.140683	-4.245202	-4.131196	 21.524690	 0.986298	-5.167839	 0.733520	 3.519257	-1.378229	 35.397820	-2.634230	 1.585457	 7.973685	 0.591576	-12.748250	-9.433496	-4.505513	 89.782130	 78.203890	 180.000000	-4.291652	 3.988512	-9.540453	-1.389019	-15.094510	 45.812930	-18.144350	 43.740520	 77.824370	 5.715225	 19.176060	-3.692089	 5.027514	 0.245388	-9.378011	-2.350882	 35.473990	 5.254307
-0.714522	-1.653710	 1.273962	-176.447700	 6.174075	-2.336886	-4.113622	-9.054093	-179.861200	-0.202536	-15.245360	 0.460199	-21.844460	 55.731510	 12.095910	-2.385833	 28.452760	 0.000004	 0.278004	-12.471510	-177.183700	-5.545146	-19.067400	 1.753976	 3.154558	 83.915820	 7.315840	 2.384659	 28.388700	-0.000001	-11.673650	 6.191055	 4.355417	-6.561969	-7.479853	-15.991040	 13.717960	-8.956807	 16.625670	-91.776170	 78.527400	-180.000000	-36.020320	 9.225628	 6.025345	-10.233890	-7.469643	-57.101330	 7.462582	-3.414977	-4.103154	-4.131196	 21.524690	 0.986298	-5.167839	 0.733520	 3.519257	-1.378229	 35.397820	-2.634230	 1.490950	 8.059376	 0.917295	-12.613410	-9.289461	-4.410500	 89.782090	 78.203870	 180.000000	-5.269341	 6.642612	-11.584350	 0.356831	-16.514640	 52.155250	-16.224920	 43.647510	 73.996370	 5.715225	 19.176060	-3.692089	 5.027514	 0.245388	-9.378011	-2.350882	 35.473990	 5.254307
-0.710720	-1.648148	 1.272740	-176.312900	 6.263213	-2.714433	-4.142843	-9.967915	 179.832900	 0.877869	-18.782170	 0.911833	-25.058290	 56.424020	 15.151400	-2.385833	 28.452760	 0.000004	 2.260472	-14.323280	-176.410700	-6.549154	-21.748830	 1.614954	 24.058350	 87.001010	-12.750490	 2.384659	 28.388700	-0.000001	-13.027470	 5.495836	 4.597738	-7.758113	-4.624511	-16.523580	 14.192680	-10.180920	 17.012210	-91.776150	 78.527380	 180.000000	-32.873120	 14.178470	 10.489230	-11.925010	-7.751076	-68.033780	 7.061345	-3.656729	-3.960975	-4.131196	 21.524690	 0.986298	-5.167839	 0.733520	 3.519257	-1.378229	 35.397820	-2.634230	 1.370969	 7.941326	 1.279479	-12.467350	-8.805481	-4.218674	 89.782100	 78.203900	 180.000000	-6.704029	 11.291080	-13.842090	 3.063761	-17.933530	 60.859880	-13.992380	 41.648240	 66.885050	 5.715225	 19.176060	-3.692089	 5.027514	 0.245388	-9.378011	-2.350882	 35.473990	 5.254307
-0.706454	-1.640996	 1.271546	-176.256600	 6.440019	-2.887330	-4.881605	-10.664380	 179.148400	 2.072502	-22.320840	 1.530670	-29.047290	 57.064950	 19.085340	-2.385833	 28.452760	 0.000004	 2.956855	-16.532330	-175.696900	-6.839906	-24.356220	 1.676891	 46.882530	 86.663170	-35.444450	 2.384659	 28.388700	-0.000001	-14.683920	 4.578902	 4.546223	-9.218959	-0.509903	-17.535250	 15.152830	-12.145690	 18.329430	-91.776120	 78.527360	 179.999900	-28.747430	 20.504910	 12.371420	-13.269230	-7.545840	-76.777470	 6.650174	-3.886158	-3.827262	-4.131196	 21.524690	 0.986298	-5.167839	 0.733520	 3.519257	-1.378229	 35.397820	-2.634230	 1.461409	 8.023029	 1.297980	-12.407820	-8.986147	-4.272753	 89.782110	 78.203920	 180.000000	-8.683956	 17.791250	-15.092070	 5.655767	-18.985280	 68.935940	-14.363830	 38.244530	 61.470440	 5.715225	 19.176060	-3.692089	 5.027514	 0.245388	-9.378011	-2.350882	 35.473990	 5.254307
-0.701500	-1.632250	 1.270309	-176.247500	 6.803490	-2.987620	-5.906227	-11.091740	 178.247300	 3.365285	-25.535780	 2.297572	-33.599990	 57.698230	 23.546310	-2.385833	 28.452760	 0.000004	 3.534524	-19.077910	-174.847800	-6.989413	-26.846710	 1.768383	 56.874570	 85.420590	-45.529090	 2.384659	 28.388700	-0.000001	-16.648110	 3.403943	 4.059979	-11.006580	 4.399867	-18.046100	 16.375330	-14.562870	 19.700400	-91.776200	 78.527420	-180.000000	-22.603780	 27.460910	 9.553761	-13.907460	-7.058968	-80.907690	 6.254224	-4.102159	-3.697526	-4.131196	 21.524690	 0.986298	-5.167839	 0.733520	 3.519257	-1.378229	 35.397820	-2.634230	 1.583508	 8.134886	 1.257158	-12.366050	-9.271675	-4.364985	 89.782170	 78.203890	 179.999900	-11.034560	 26.052470	-14.588830	 7.575530	-19.501640	 74.711250	-18.451790	 33.518260	 57.919820	 5.715225	 19.176060	-3.692089	 5.027514	 0.245388	-9.378011	-2.350882	 35.473990	 5.254307
-0.695047	-1.620496	 1.268919	-176.357000	 7.551384	-2.897261	-7.542664	-11.278430	 176.904800	 4.340009	-28.658910	 3.027038	-37.872180	 57.805270	 28.189600	-2.385833	 28.452760	 0.000004	 4.043408	-22.335760	-173.866000	-6.719570	-29.244940	 2.045255	 41.635580	 80.582360	-31.225510	 2.384659	 28.388700	-0.000001	-19.110430	 1.957605	 2.643342	-13.478010	 10.054320	-17.423020	 17.760050	-17.469820	 20.779170	-91.776150	 78.527400	 180.000000	-13.974490	 34.156240	-1.211268	-13.471050	-6.561610	-76.599620	 6.061751	-4.194246	-3.639410	-4.131196	 21.524690	 0.986298	-5.167839	 0.733520	 3.519257	-1.378229	 35.397820	-2.634230	 1.703389	 8.211406	 1.094835	-12.360350	-9.418085	-4.311125	 89.782140	 78.203900	 180.000000	-13.907320	 36.999100	-11.451670	 8.062999	-19.812890	 76.322070	-27.506030	 26.611190	 56.659600	 5.715225	 19.176060	-3.692089	 5.027514	 0.245388	-9.378011	-2.350882	 35.473990	 5.254307
-0.685908	-1.602824	 1.267522	-176.586400	 9.132483	-2.576833	-9.976597	-11.081220	 174.931700	 5.164000	-31.417770	 3.735692	-42.835390	 57.343090	 33.766750	-2.385833	 28.452760	 0.000004	 4.549195	-26.921990	-172.552500	-6.330817	-31.440490	 2.387189	 32.842300	 73.162870	-24.213370	 2.384659	 28.388700	-0.000001	-22.482280	-0.175342	-0.538588	-17.379410	 16.593560	-14.502040	 19.263640	-21.082950	 21.289430	-91.776170	 78.527380	 180.000000	-6.273487	 37.739210	-24.469460	-11.067200	-4.928297	-51.187640	 5.899904	-4.271259	-3.593508	-4.131196	 21.524690	 0.986298	-5.167839	 0.733520	 3.519257	-1.378229	 35.397820	-2.634230	 1.852800	 8.292143	 0.851993	-12.363270	-9.556040	-4.182091	 89.782110	 78.203890	 180.000000	-18.906360	 50.450250	-2.764299	 5.212327	-19.232920	 68.088970	-41.637020	 13.672550	 58.058170	 5.715225	 19.176060	-3.692089	 5.027514	 0.245388	-9.378011	-2.350882	 35.473990	 5.254307
-0.675389	-1.582463	 1.266533	-176.656300	 11.001070	-1.451235	-12.011780	-10.302790	 172.106400	 3.234255	-33.231240	 2.847671	-41.584330	 54.489880	 35.730100	-2.385833	 28.452760	 0.000004	 4.820987	-31.152690	-172.055200	-6.875233	-32.440530	 2.161686	 32.814720	 69.294470	-24.960640	 2.384659	 28.388700	-0.000001	-26.203330	-1.584748	-5.746026	-21.747820	 21.038440	-9.289470	 20.128830	-24.288610	 20.552470	-91.776150	 78.527400	 180.000000	-9.094610	 37.782520	-52.137540	-8.779326	-0.047685	-0.690761	 5.807505	-4.466440	-3.569319	-4.131196	 21.524690	 0.986298	-5.167839	 0.733520	 3.519257	-1.378229	 35.397820	-2.634230	 2.143445	 8.401557	 0.378257	-12.344110	-9.830666	-3.682503	 89.782000	 78.289670	-179.966600	-24.752960	 59.448850	 11.472020	-1.318421	-15.473000	 46.996130	-52.504430	-4.365178	 59.627680	 5.715225	 19.176060	-3.692089	 5.027514	 0.245388	-9.378011	-2.350882	 35.473990	 5.254307
-0.670051	-1.572438	 1.266204	-176.686800	 11.834230	-0.935220	-12.900330	-9.729523	 170.903000	 2.553662	-33.592000	 2.496507	-40.707220	 53.035590	 36.024900	-2.385833	 28.452760	 0.000004	 4.819568	-32.836860	-171.945400	-7.147136	-32.622730	 2.025425	 32.507920	 67.545490	-24.995480	 2.384659	 28.388700	-0.000001	-27.759380	-1.977453	-8.106173	-23.580600	 22.211290	-6.883780	 20.290280	-25.388120	 20.042780	-91.776210	 78.527380	-179.999900	-9.436966	 39.531290	-53.409470	-8.817444	-0.043612	-0.686466	 5.764219	-4.555166	-3.557520	-4.131196	 21.524690	 0.986298	-5.167839	 0.733520	 3.519257	-1.378229	 35.397820	-2.634230	 2.277284	 8.450379	 0.160260	-12.334670	-9.956195	-3.452752	 89.781880	 78.297900	-179.963000	-26.699010	 61.466090	 19.864690	-4.768929	-11.411910	 32.210690	-55.907380	-14.756090	 60.169630	 5.715225	 19.176060	-3.692089	 5.027514	 0.245388	-9.378011	-2.350882	 35.473990	 5.254307
-0.659277	-1.553816	 1.265812	-176.751500	 12.831300	-0.309921	-13.082110	-8.482923	 169.195700	 1.769260	-33.626380	 2.062816	-36.607040	 48.746140	 34.358460	-2.385833	 28.452760	 0.000004	 4.827929	-34.922650	-171.807000	-7.674815	-32.783490	 1.747790	 33.194590	 65.495860	-26.083910	 2.384659	 28.388700	-0.000001	-29.930680	-2.293192	-11.148610	-26.051810	 23.365200	-3.370119	 20.239070	-26.800470	 18.872190	-91.776200	 78.527400	-180.000000	-11.029630	 42.101810	-53.921710	-8.850131	-0.037753	-0.697848	 5.727097	-4.701814	-3.552376	-4.131196	 21.524690	 0.986298	-5.167839	 0.733520	 3.519257	-1.378229	 35.397820	-2.634230	 2.413129	 8.644280	 0.057647	-12.278770	-10.103850	-3.415432	 89.781970	 78.308840	-179.958500	-27.449660	 61.952820	 35.607430	-7.726183	-0.168497	 0.750497	-59.186870	-34.814670	 61.127560	 5.715225	 19.176060	-3.692089	 5.027514	 0.245388	-9.378011	-2.350882	 35.473990	 5.254307
